<?xml version="1.0" encoding="UTF-8" standalone="no"?>
<!-- Created with Inkscape (http://www.inkscape.org/) -->

<svg
   xmlns:dc="http://purl.org/dc/elements/1.1/"
   xmlns:cc="http://creativecommons.org/ns#"
   xmlns:rdf="http://www.w3.org/1999/02/22-rdf-syntax-ns#"
   xmlns:svg="http://www.w3.org/2000/svg"
   xmlns="http://www.w3.org/2000/svg"
   xmlns:sodipodi="http://sodipodi.sourceforge.net/DTD/sodipodi-0.dtd"
   xmlns:inkscape="http://www.inkscape.org/namespaces/inkscape"
   height="42"
   width="199"
   version="1.1"
   id="svg2"
   inkscape:version="0.91 r13725"
   sodipodi:docname="ceske-drahy.svg"
   inkscape:export-filename="C:\_perestrojka\_cd_2015\sablony\dev51\images\cdosn\ceske-drahy.png"
   inkscape:export-xdpi="90"
   inkscape:export-ydpi="90">
  <sodipodi:namedview
     pagecolor="#ffffff"
     bordercolor="#666666"
     borderopacity="1"
     objecttolerance="10"
     gridtolerance="10"
     guidetolerance="10"
     inkscape:pageopacity="0"
     inkscape:pageshadow="2"
     inkscape:window-width="1920"
     inkscape:window-height="1033"
     id="namedview64"
     showgrid="false"
     inkscape:zoom="4.2355341"
     inkscape:cx="107.8656"
     inkscape:cy="-8.8752619"
     inkscape:window-x="-4"
     inkscape:window-y="-4"
     inkscape:window-maximized="1"
     inkscape:current-layer="svg2" />
  <defs
     id="defs4">
    <pattern
       y="0"
       x="0"
       height="6"
       width="6"
       patternUnits="userSpaceOnUse"
       id="EMFhbasepattern" />
  </defs>
  <metadata
     id="metadata6">
    <rdf:RDF>
      <cc:Work
         rdf:about="">
        <dc:format>image/svg+xml</dc:format>
        <dc:type
           rdf:resource="http://purl.org/dc/dcmitype/StillImage" />
        <dc:title></dc:title>
      </cc:Work>
    </rdf:RDF>
  </metadata>
  <path
     inkscape:connector-curvature="0"
     id="path4165"
     d="m 101.35705,10.192815 3.68471,0 0,9.025636 3.32143,-4.455998 3.91193,0 -4.36696,5.547284 5.09478,6.456612 -4.52615,0 -3.43503,-4.956156 0,4.956156 -3.68471,0 z"
     style="fill:#009ed9;fill-opacity:1;fill-rule:nonzero;stroke:none" />
  <path
     inkscape:connector-curvature="0"
     id="path4167"
     d="m 191.11215,26.766349 -1.31958,0 -4.13975,-12.003896 3.935,0 2.06988,7.115965 0.50062,1.955177 0.59176,-1.955177 2.38823,-7.115965 3.70716,0 -5.86818,16.823603 -3.50307,0 z"
     style="fill:#009ed9;fill-opacity:1;fill-rule:nonzero;stroke:none" />
  <path
     inkscape:connector-curvature="0"
     id="path4169"
     d="m 60.755983,19.104787 c 0,-5.410832 2.888714,-8.093518 8.529826,-8.093518 2.297084,0 3.6616,0.431934 4.822014,0.954835 l -0.978136,2.705406 c -1.478761,-0.409216 -2.092344,-0.568317 -3.798309,-0.568317 -2.820812,-0.04548 -4.777088,1.52322 -4.777088,4.774245 0,3.251026 2.069878,4.978899 5.209035,4.978899 1.523688,0 2.411328,-0.113708 3.616671,-0.431957 l 0.773397,2.819068 c -1.47876,0.545621 -2.775242,0.750229 -4.776446,0.750229 -5.686744,0 -8.620964,-2.79635 -8.620964,-7.88889 z m 8.211482,-8.593701 -4.185328,-2.136997 1.273375,-2.318955 2.911953,1.31859 2.933771,-1.31859 1.296483,2.318955 z"
     style="fill:#009ed9;fill-opacity:1;fill-rule:nonzero;stroke:none" />
  <path
     inkscape:connector-curvature="0"
     id="path4171"
     d="m 75.47234,20.946301 c 0,-4.887931 2.592966,-6.456612 6.209633,-6.456612 3.775837,0 5.231492,2.455291 5.231492,6.070116 l 0,1.318613 -7.778883,0 c -0.02251,1.886952 1.478755,2.250752 3.388813,2.250752 0.796507,0 2.161036,-0.272833 3.411947,-0.477463 l 0.546188,2.773653 c -1.31959,0.409215 -3.048009,0.613822 -4.503664,0.613822 -3.935025,0 -6.505526,-1.318612 -6.505526,-6.092881 z m 7.688393,-1.40958 c 0.04548,-1.454994 -0.591763,-2.45529 -1.797099,-2.45529 -1.25091,0 -2.046774,0.886609 -2.11545,2.45529 z"
     style="fill:#009ed9;fill-opacity:1;fill-rule:nonzero;stroke:none" />
  <path
     inkscape:connector-curvature="0"
     id="path4173"
     d="m 88.960882,26.516304 0.386383,-2.750934 c 1.569908,0.204676 2.820819,0.318293 3.616667,0.318293 1.865143,0 2.069887,-0.477394 2.069887,-0.841172 0,-1.295848 -6.027363,-0.682071 -6.027363,-4.978876 0,-2.591741 2.433801,-3.796713 5.049217,-3.796713 1.455655,0 2.775247,0.250114 4.026158,0.682071 l -0.614215,2.659966 c -1.159782,-0.272833 -2.069883,-0.454721 -3.298325,-0.454721 -1.25091,0 -1.501229,0.477441 -1.501229,0.727509 0,1.364051 6.004892,1.000342 6.004892,5.024382 0,3.160081 -3.320796,3.933073 -5.345108,3.933073 -1.72842,0 -3.1385,-0.159192 -4.366964,-0.522878 z"
     style="fill:#009ed9;fill-opacity:1;fill-rule:nonzero;stroke:none" />
  <path
     inkscape:connector-curvature="0"
     id="path4175"
     d="m 113.73077,20.946301 c 0,-4.887931 2.5705,-6.456612 6.20964,-6.456612 3.77583,0 5.23149,2.455291 5.23149,6.070116 l 0,1.318613 -7.77889,0 c -0.0227,1.886952 1.45566,2.250752 3.36636,2.250752 0.81897,0 2.18348,-0.272833 3.43439,-0.477463 l 0.54619,2.773653 c -1.34204,0.409215 -3.04801,0.613822 -4.50367,0.613822 -3.95811,0 -6.50551,-1.318612 -6.50551,-6.092881 z m 3.13914,-9.594043 5.23152,-2.659899 1.18286,2.569024 -5.36819,2.273402 z m 4.52615,8.184463 c 0.0455,-1.454994 -0.59112,-2.45529 -1.77402,-2.45529 -1.25091,0 -2.06986,0.886609 -2.11543,2.45529 z"
     style="fill:#009ed9;fill-opacity:1;fill-rule:nonzero;stroke:none" />
  <path
     inkscape:connector-curvature="0"
     id="path4177"
     d="m 133.70172,20.559805 c 0,-4.09222 2.88885,-6.092903 6.52798,-6.092903 0.6598,0 1.20536,0.09097 1.59238,0.13645 l 0,-4.410537 3.66224,0 0,16.573534 -3.66224,0 0,-0.86389 c -0.54619,0.431956 -1.20536,1.045779 -2.72967,1.045779 -2.4107,0 -5.39069,-1.18223 -5.39069,-6.388455 z m 8.12036,2.955519 0,-6.001936 c -0.38702,-0.06822 -0.86455,-0.159193 -1.52434,-0.159193 -2.09234,0 -2.93378,1.20495 -2.93378,3.273813 0,2.614461 1.15979,3.273745 2.45627,3.273745 0.65979,0 1.45566,-0.159193 2.00185,-0.386452 z"
     style="fill:#009ed9;fill-opacity:1;fill-rule:nonzero;stroke:none" />
  <path
     inkscape:connector-curvature="0"
     id="path4179"
     d="m 148.69149,14.762453 3.66161,0 0,1.614188 c 0.59176,-0.772993 1.70597,-1.841514 3.09359,-1.841514 0.6598,0 1.13731,0.04548 1.6604,0.204676 l -0.50062,3.000979 c -0.70472,-0.13645 -0.93257,-0.13645 -1.59172,-0.13645 -1.09174,0 -2.18349,0.500159 -2.66165,1.023061 l 0,8.138956 -3.66161,0 z"
     style="fill:#009ed9;fill-opacity:1;fill-rule:nonzero;stroke:none" />
  <path
     inkscape:connector-curvature="0"
     id="path4181"
     d="m 157.51657,23.333436 c 0,-3.023699 2.75214,-3.637545 5.14036,-3.637545 l 2.06987,0 0,-0.750228 c 0,-1.045779 -0.68226,-1.364119 -2.16037,-1.364119 -1.18287,0 -2.45688,0.272833 -3.59421,0.522947 l -0.70472,-2.659967 c 1.34141,-0.522879 2.93379,-0.954835 4.84448,-0.954835 3.70782,0 5.20904,1.045779 5.20904,3.751208 l 0,5.342585 c 0,0.386518 0.38637,0.477463 1.06864,0.500181 l -0.11348,2.773631 c -0.2959,0.02274 -0.59113,0.02274 -0.86455,0.02274 -1.45566,0 -2.97933,-0.250045 -3.32077,-1.273106 -0.88703,0.682003 -2.13794,1.364051 -3.45687,1.364051 -2.63854,0 -4.1173,-1.250388 -4.1173,-3.637521 z m 3.04801,-11.981178 5.23149,-2.659899 1.18289,2.569024 -5.39065,2.273402 z m 4.16222,12.367674 0,-1.909739 -1.79646,0.04548 c -1.06928,0.02274 -1.86514,0.386451 -1.86514,1.273129 0,0.682048 0.68227,1.000342 1.34141,1.000342 0.70537,0 1.54679,-0.204676 2.32019,-0.409238 z"
     style="fill:#009ed9;fill-opacity:1;fill-rule:nonzero;stroke:none" />
  <path
     inkscape:connector-curvature="0"
     id="path4183"
     d="m 172.39209,10.192815 3.66224,0 0,5.79733 c 0.72784,-0.56834 2.32021,-1.568681 3.91257,-1.568681 3.75272,0 4.02551,2.091582 4.02551,4.819706 l 0,7.525179 -3.6616,0 0,-7.229628 c 0,-1.636837 -0.36391,-1.932389 -1.59236,-1.932389 -1.09174,0 -2.09235,0.363708 -2.68412,0.659283 l 0,8.502734 -3.66224,0 z"
     style="fill:#009ed9;fill-opacity:1;fill-rule:nonzero;stroke:none" />
  <path
     inkscape:connector-curvature="0"
     id="path4185"
     d="m 35.644658,9.897263 1.432933,0 4.731134,0 c 1.546731,0 1.524009,0.841219 1.524009,2.068841 -0.02279,1.136724 -0.204744,2.796349 -0.682387,5.115327 -0.500427,2.27347 -0.978073,3.933096 -1.455718,5.115258 -0.363977,0.886633 -0.70517,1.500456 -1.000857,1.909694 -0.454925,0.591126 -0.705109,0.727508 -1.000796,0.841172 -0.295687,0.09097 -0.750612,0.13645 -1.45572,0.13645 l -26.066676,0 c -1.501225,0 -1.7969097,-0.363777 -1.7969097,-1.432298 0,-0.682071 0.113731,-1.659626 0.3866317,-2.955519 0.295751,-1.386793 0.477709,-1.705064 0.841622,-2.455291 0.545871,-1.114029 1.023579,-1.523243 1.455721,-1.773312 0.454923,-0.227417 1.023579,-0.341058 1.865135,-0.341058 l 8.097561,0 0.841558,-3.978534 -8.939119,0 c -0.77333,0 -1.592168,0.06822 -2.456512,0.318294 -0.636881,0.181933 -1.296482,0.47744 -1.910642,0.886678 -0.932568,0.659283 -1.7286873,1.5914 -2.3428462,2.773562 -0.6140959,1.204972 -0.9552899,1.932458 -1.3419758,3.751276 -0.3184382,1.454995 -0.4776625,2.682617 -0.4776625,3.773904 0,0.909397 0.1137313,1.72785 0.4094241,2.500798 0.2274565,0.568406 0.5686556,1.114027 1.0007942,1.545961 0.6596653,0.636564 1.4557205,0.977578 2.2063304,1.136747 0.7278928,0.181934 1.4557828,0.204676 2.1608898,0.227417 3.366362,0 22.65481,0 26.066676,0 0.659602,-0.02274 1.47844,-0.02274 2.38829,-0.250068 0.705106,-0.181934 1.432996,-0.545666 2.069877,-1.068567 0.978076,-0.818385 1.774192,-1.955109 2.456515,-3.523858 0.682385,-1.568681 1.296547,-3.592038 1.887921,-6.320163 0.523151,-2.478078 0.750612,-4.387816 0.750612,-5.933779 0,-1.136747 -0.113732,-2.091583 -0.409417,-2.955474 C 46.65359,8.37418 46.312398,7.805771 45.880256,7.328378 45.220591,6.623587 44.35625,6.237091 43.651141,6.100686 42.923314,5.941493 42.309155,5.941493 41.808725,5.941493 l -7.756302,0 -1.614954,0 -3.593823,16.891783 4.048747,0 z"
     style="fill:#002964;fill-opacity:1;fill-rule:nonzero;stroke:none" />
  <path
     inkscape:connector-curvature="0"
     id="path4187"
     d="M 51.566682,5.691379 C 50.95252,4.41825 50.110963,3.4179308 49.178394,2.6676805 47.745395,1.5309561 46.15316,0.9853135 44.720227,0.7125025 43.287228,0.4624114 41.967962,0.4396924 41.012608,0.4396924 l -7.005689,0 -4.298932,0 -1.592234,0 -4.776574,22.3935606 4.071467,0 3.912298,-18.415003 9.689664,0 c 0.796117,0 1.728686,0 2.638533,0.159192 0.682387,0.09097 1.34199,0.272833 1.93343,0.522902 0.909783,0.409215 1.637675,0.977601 2.229049,2.000615 0.591377,1.000342 1.069085,2.546304 1.069085,4.956158 0,1.38686 -0.159238,3.069204 -0.545934,5.069819 -0.682387,3.592107 -1.523945,6.229287 -2.433793,8.139026 -0.682387,1.432231 -1.387492,2.432572 -2.092599,3.137363 -1.0463,1.068498 -2.069879,1.56868 -3.298137,1.864232 -1.205536,0.272787 -2.593029,0.318294 -4.116972,0.295575 l -25.452581,0 C 9.2595079,30.585872 7.5536082,30.131106 6.3935505,29.153552 5.8021556,28.653369 5.3017528,28.062266 4.9378186,27.198375 4.5738864,26.357203 4.3236845,25.265962 4.3236845,23.833663 c 0,-0.909397 0.090971,-1.977896 0.3411878,-3.160126 0.5004027,-2.568978 1.0008127,-3.796646 1.7514246,-5.251663 1.1145255,-2.205291 2.3427834,-3.296532 3.5711024,-3.955815 1.2282567,-0.636611 2.5702457,-0.841242 3.9577377,-0.841242 l 9.735234,0 0.841558,-3.97851 -10.576792,0 c -1.160031,0 -2.456514,0.113708 -3.798564,0.500159 C 8.1449824,7.714805 6.0751091,8.965193 4.4146631,11.147719 2.7314746,13.330246 1.5941844,15.6492 0.7525914,19.90059 c -0.27294889,1.409488 -0.40942215,2.728124 -0.40942215,3.933073 0,1.886975 0.34118552,3.5466 0.95532215,4.956112 0.9098341,2.137066 2.5020366,3.637589 4.2534623,4.5242 1.7514061,0.886678 3.6393292,1.227691 5.3907353,1.227691 l 25.452581,0 c 1.387492,0 2.865932,0 4.458167,-0.295575 1.16003,-0.227417 2.388286,-0.613823 3.548316,-1.295825 1.774192,-1.023083 3.366364,-2.705428 4.662909,-5.138069 1.319268,-2.432571 2.365567,-5.638159 3.184406,-9.957752 0.409417,-2.182503 0.614159,-4.092197 0.614159,-5.797328 0,-2.591744 -0.454923,-4.683326 -1.296545,-6.36567 z"
     style="fill:#002964;fill-opacity:1;fill-rule:nonzero;stroke:none" />
  <path
     inkscape:connector-curvature="0"
     id="path4189"
     d="m 26.18239,0.4396924 -17.4915377,0 -0.8415565,3.9785576 13.6019592,0 c 4.185201,0 4.731135,-3.9785576 4.731135,-3.9785576 z"
     style="fill:#002964;fill-opacity:1;fill-rule:nonzero;stroke:none" />
  <path
     inkscape:connector-curvature="0"
     id="path4191"
     d="m 61.142679,34.541598 1.614955,0 2.957071,5.228921 -0.0231,-0.795666 0,-4.433255 1.319589,0 0,6.797602 -1.705964,0 -2.888782,-5.115258 0.02274,0.841173 0,4.274085 -1.296482,0 z"
     style="fill:#002964;fill-opacity:1;fill-rule:nonzero;stroke:none" />
  <path
     inkscape:connector-curvature="0"
     id="path4193"
     d="m 69.74086,34.700699 2.114808,-1.182185 0.455052,0.909397 -2.183482,1.068522 z m 1.865138,5.388091 0,-1.022992 -0.955675,0.02274 c -0.614223,0.02274 -1.000601,0.272787 -1.000601,0.704791 0,0.454675 0.318344,0.636564 0.727828,0.636564 0.455051,0 0.978138,-0.250114 1.228448,-0.341081 z m -3.184724,-0.204676 c 0,-1.318544 1.182878,-1.5914 2.161018,-1.5914 l 1.023706,-0.02274 0,-0.454722 c 0,-0.613777 -0.34145,-0.750227 -1.092382,-0.750227 -0.49998,0 -1.091741,0.13645 -1.478119,0.227417 l -0.250309,-0.954835 c 0.45505,-0.159193 1.137308,-0.363732 1.956275,-0.363732 1.455655,0 2.115448,0.431957 2.115448,1.545961 l 0,2.568955 c 0,0.250137 0.227213,0.295575 0.499979,0.318293 l -0.06805,0.977624 -0.272776,0 c -0.568653,0 -1.160414,-0.136451 -1.296481,-0.591127 -0.318345,0.250114 -0.864536,0.636565 -1.614828,0.636565 -1.069276,0 -1.683499,-0.54562 -1.683499,-1.545963 z"
     style="fill:#002964;fill-opacity:1;fill-rule:nonzero;stroke:none" />
  <path
     inkscape:connector-curvature="0"
     id="path4195"
     d="m 74.744513,36.087537 1.274018,0 0,0.704789 c 0.250312,-0.363776 0.773398,-0.795734 1.410085,-0.795734 0.318343,0 0.523086,0.02274 0.705363,0.06822 l -0.204744,1.068521 c -0.250311,-0.04548 -0.363914,-0.06822 -0.659795,-0.06822 -0.523086,0 -1.023707,0.31827 -1.250913,0.613822 l 0,3.660263 -1.274018,0 z"
     style="fill:#002964;fill-opacity:1;fill-rule:nonzero;stroke:none" />
  <path
     inkscape:connector-curvature="0"
     id="path4197"
     d="m 82.523395,38.724739 c 0,-0.909397 -0.249659,-1.750569 -1.296462,-1.750569 -1.023084,0 -1.296485,0.841172 -1.296485,1.750569 0,0.977623 0.318976,1.705132 1.31959,1.705132 1.023698,0 1.273357,-0.750295 1.273357,-1.705132 z m -3.889434,0.04548 c 0,-1.773289 1.069275,-2.819092 2.616077,-2.819092 1.751525,0 2.570501,1.045803 2.570501,2.773585 0,1.796077 -1.114845,2.728193 -2.638544,2.728193 -1.637929,0 -2.548034,-1.023061 -2.548034,-2.682686 z"
     style="fill:#002964;fill-opacity:1;fill-rule:nonzero;stroke:none" />
  <path
     inkscape:connector-curvature="0"
     id="path4199"
     d="m 88.369119,40.020633 0,-2.9328 c -0.181707,-0.04548 -0.431934,-0.113708 -0.818317,-0.113708 -1.023698,0 -1.433186,0.750295 -1.433186,1.72785 0,1.250388 0.545553,1.659626 1.228442,1.659626 0.363913,0 0.795871,-0.204676 1.023061,-0.341013 z m -3.547988,-1.341332 c 0,-1.818817 1.228442,-2.728147 2.729671,-2.728147 0.363914,0 0.568658,0.04548 0.818317,0.09097 l 0,-1.955109 1.274039,0 0,7.252278 -1.274039,0 0,-0.409238 c -0.249659,0.204676 -0.613573,0.500183 -1.25091,0.500183 -1.000593,0 -2.297078,-0.454677 -2.297078,-2.750866 z"
     style="fill:#002964;fill-opacity:1;fill-rule:nonzero;stroke:none" />
  <path
     inkscape:connector-curvature="0"
     id="path4201"
     d="m 91.303534,36.087537 1.274038,0 0,0.568339 c 0.38636,-0.272764 1.023061,-0.704722 1.750888,-0.704722 1.615461,0 1.729056,0.977555 1.729056,2.068796 l 0,3.31925 -1.274016,0 0,-3.182799 c 0,-0.795735 -0.159192,-1.091286 -0.863891,-1.091286 -0.52372,0 -1.023698,0.250113 -1.342037,0.431934 l 0,3.842151 -1.274038,0 z"
     style="fill:#002964;fill-opacity:1;fill-rule:nonzero;stroke:none" />
  <path
     inkscape:connector-curvature="0"
     id="path4203"
     d="m 97.672361,36.087537 1.274024,0 0,5.251663 -1.274024,0 z m -0.386378,-1.386838 2.092333,-1.182185 0.455066,0.909397 -2.161021,1.068522 z"
     style="fill:#002964;fill-opacity:1;fill-rule:nonzero;stroke:none" />
  <path
     inkscape:connector-curvature="0"
     id="path4205"
     d="m 106.22466,40.020633 0,-2.9328 c -0.18172,-0.04548 -0.43197,-0.113708 -0.79588,-0.113708 -1.04617,0 -1.45565,0.750295 -1.45565,1.72785 0,1.250388 0.54555,1.659626 1.2278,1.659626 0.36455,0 0.79651,-0.204676 1.02373,-0.341013 z m -3.54801,-1.341332 c 0,-1.818817 1.22779,-2.728147 2.72902,-2.728147 0.36392,0 0.59177,0.04548 0.81899,0.09097 l 0,-1.955109 1.27401,0 0,7.252278 -1.27401,0 0,-0.409238 c -0.25032,0.204676 -0.61424,0.500183 -1.25092,0.500183 -1.00061,0 -2.29709,-0.454677 -2.29709,-2.750866 z"
     style="fill:#002964;fill-opacity:1;fill-rule:nonzero;stroke:none" />
  <path
     inkscape:connector-curvature="0"
     id="path4207"
     d="m 112.73016,38.724739 c 0,-0.909397 -0.25032,-1.750569 -1.29648,-1.750569 -1.02371,0 -1.29649,0.841172 -1.29649,1.750569 0,0.977623 0.31836,1.705132 1.31895,1.705132 1.0237,0 1.27402,-0.750295 1.27402,-1.705132 z m -3.88945,0.04548 c 0,-1.773289 1.06862,-2.819092 2.61543,-2.819092 1.75153,0 2.57051,1.045803 2.57051,2.773585 0,1.796077 -1.11486,2.728193 -2.63855,2.728193 -1.63793,0 -2.54739,-1.023061 -2.54739,-2.682686 z"
     style="fill:#002964;fill-opacity:1;fill-rule:nonzero;stroke:none" />
  <path
     inkscape:connector-curvature="0"
     id="path4209"
     d="m 118.91669,38.611076 c 0,-1.000296 -0.34081,-1.568681 -1.31895,-1.568681 -0.34145,0 -0.79585,0.204676 -0.97812,0.272833 l 0,3.069137 c 0.18216,0 0.45503,0.06822 0.84142,0.06822 0.95568,0 1.45565,-0.795734 1.45565,-1.841514 z m -3.5711,-2.523539 1.27403,0 0,0.409238 c 0.27275,-0.204676 0.84142,-0.522901 1.34203,-0.522901 1.41011,0 2.25153,0.772947 2.25153,2.523516 0,2.205246 -1.34141,2.932755 -2.77462,2.932755 -0.31833,0 -0.59176,-0.02274 -0.81894,-0.04548 l 0,2.068864 -1.27403,0 z"
     style="fill:#002964;fill-opacity:1;fill-rule:nonzero;stroke:none" />
  <path
     inkscape:connector-curvature="0"
     id="path4211"
     d="m 121.53276,36.087537 1.29649,0 0,0.704789 c 0.2503,-0.363776 0.75029,-0.795734 1.41008,-0.795734 0.29587,0 0.50062,0.02274 0.68225,0.06822 l -0.1817,1.068521 c -0.2503,-0.04548 -0.38702,-0.06822 -0.68225,-0.06822 -0.52309,0 -1.00126,0.31827 -1.22845,0.613822 l 0,3.660263 -1.29649,0 z"
     style="fill:#002964;fill-opacity:1;fill-rule:nonzero;stroke:none" />
  <path
     inkscape:connector-curvature="0"
     id="path4213"
     d="m 128.58382,40.08879 0,-1.022992 -0.97812,0.02274 c -0.59112,0.02274 -0.97814,0.272787 -0.97814,0.704791 0,0.454675 0.31897,0.636564 0.72782,0.636564 0.45504,0 0.95568,-0.250114 1.22844,-0.341081 z m -3.20717,-0.204676 c 0,-1.318544 1.20533,-1.5914 2.18348,-1.5914 l 1.02369,-0.02274 0,-0.454722 c 0,-0.613777 -0.3408,-0.750227 -1.09174,-0.750227 -0.50061,0 -1.09174,0.13645 -1.47812,0.227417 l -0.2503,-0.954835 c 0.45441,-0.159193 1.13732,-0.363732 1.95564,-0.363732 1.45628,0 2.11543,0.431957 2.11543,1.545961 l 0,2.568955 c 0,0.250137 0.22786,0.295575 0.47818,0.318293 l -0.0455,0.977624 -0.27342,0 c -0.56866,0 -1.18224,-0.136451 -1.29649,-0.591127 -0.3408,0.250114 -0.86389,0.636565 -1.63729,0.636565 -1.06928,0 -1.68348,-0.54562 -1.68348,-1.545963 z"
     style="fill:#002964;fill-opacity:1;fill-rule:nonzero;stroke:none" />
  <path
     inkscape:connector-curvature="0"
     id="path4215"
     d="m 131.08564,36.087537 1.38763,0 0.95569,3.137362 0.29523,1.091309 0.34144,-1.091309 1.06928,-3.137362 1.34206,0 -1.97938,5.251663 -1.59171,0 z"
     style="fill:#002964;fill-opacity:1;fill-rule:nonzero;stroke:none" />
  <path
     inkscape:connector-curvature="0"
     id="path4217"
     d="m 137.18169,38.679301 c 0,-1.659625 1.04617,-2.728147 2.7072,-2.728147 0.75029,0 1.22783,0.159193 1.59174,0.341013 l -0.34081,0.954836 c -0.38702,-0.13645 -0.6598,-0.227418 -1.20599,-0.227418 -0.79588,0 -1.45566,0.477395 -1.45566,1.659625 0,1.182163 0.34145,1.727783 1.68351,1.727783 0.45504,0 0.75029,-0.09097 1.09174,-0.13645 l 0.1817,0.977622 c -0.43195,0.113709 -0.77339,0.181707 -1.34206,0.181707 -2.09233,0 -2.91131,-0.795666 -2.91131,-2.750844 z"
     style="fill:#002964;fill-opacity:1;fill-rule:nonzero;stroke:none" />
  <path
     inkscape:connector-curvature="0"
     id="path4219"
     d="m 145.73397,38.224558 c 0.0232,-0.795666 -0.29523,-1.341333 -0.93256,-1.341333 -0.65915,0 -1.09174,0.477441 -1.1373,1.341333 z m -3.38881,0.591126 c 0,-2.159808 1.09174,-2.84181 2.5705,-2.84181 1.52368,0 2.13791,1.000296 2.13791,2.637202 l 0,0.454722 -3.4344,0 c 0,1.159443 0.72783,1.364073 1.6604,1.364073 0.36392,0 1.00059,-0.136451 1.43256,-0.227418 l 0.20467,1.000343 c -0.43196,0.13645 -1.13731,0.250113 -1.86515,0.250113 -1.66039,0 -2.70655,-0.591126 -2.70655,-2.637248 z"
     style="fill:#002964;fill-opacity:1;fill-rule:nonzero;stroke:none" />
</svg>
