<svg width="99" height="99" viewBox="0 0 99 99" xmlns="http://www.w3.org/2000/svg" fill-rule="evenodd" clip-rule="evenodd" stroke-linejoin="round" stroke-miterlimit="2"><path fill="#789" d="M0 0h4v4H0zM4 0h4v4H4zM8 0h4v4H8zM12 0h4v4h-4zM16 0h4v4h-4zM20 0h4v4h-4zM24 0h4v4h-4zM36 0h4v4h-4zM51 0h4v4h-4zM71 0h4v4h-4zM75 0h4v4h-4zM79 0h4v4h-4zM83 0h4v4h-4zM87 0h4v4h-4zM91 0h4v4h-4zM95 0h4v4h-4zM0 4h4v4H0zM24 4h4v4h-4zM32 4h4v4h-4zM36 4h4v4h-4zM44 4h4v4h-4zM48 4h4v4h-4z"/><path fill="#789" d="M51 4h4v4h-4zM55 4h4v4h-4zM59 4h4v4h-4zM63 4h4v4h-4zM71 4h4v4h-4zM95 4h4v4h-4zM0 8h4v4H0zM8 8h4v4H8zM12 8h4v4h-4zM16 8h4v4h-4zM24 8h4v4h-4zM36 8h4v4h-4zM40 8h4v4h-4zM44 8h4v4h-4zM55 8h4v4h-4zM63 8h4v4h-4zM71 8h4v4h-4zM79 8h4v4h-4zM83 8h4v4h-4zM87 8h4v4h-4zM95 8h4v4h-4zM0 12h4v4H0zM8 12h4v4H8zM12 12h4v4h-4zM16 12h4v4h-4zM24 12h4v4h-4zM32 12h4v4h-4zM36 12h4v4h-4zM44 12h4v4h-4zM51 12h4v4h-4zM71 12h4v4h-4zM79 12h4v4h-4zM83 12h4v4h-4zM87 12h4v4h-4zM95 12h4v4h-4zM0 16h4v4H0zM8 16h4v4H8zM12 16h4v4h-4zM16 16h4v4h-4zM24 16h4v4h-4zM40 16h4v4h-4zM48 16h4v4h-4zM55 16h4v4h-4zM63 16h4v4h-4zM71 16h4v4h-4zM79 16h4v4h-4zM83 16h4v4h-4zM87 16h4v4h-4zM95 16h4v4h-4zM0 20h4v4H0zM24 20h4v4h-4zM32 20h4v4h-4zM40 20h4v4h-4zM51 20h4v4h-4zM59 20h4v4h-4zM71 20h4v4h-4zM95 20h4v4h-4zM0 24h4v4H0zM4 24h4v4H4zM8 24h4v4H8zM12 24h4v4h-4zM16 24h4v4h-4zM20 24h4v4h-4zM24 24h4v4h-4zM32 24h4v4h-4zM40 24h4v4h-4zM48 24h4v4h-4zM55 24h4v4h-4zM63 24h4v4h-4zM71 24h4v4h-4zM75 24h4v4h-4zM79 24h4v4h-4zM83 24h4v4h-4zM87 24h4v4h-4zM91 24h4v4h-4zM95 24h4v4h-4zM48 28h4v4h-4zM55 28h4v4h-4zM59 28h4v4h-4zM63 28h4v4h-4zM0 32h4v4H0zM4 32h4v4H4zM8 32h4v4H8zM12 32h4v4h-4zM16 32h4v4h-4zM24 32h4v4h-4zM28 32h4v4h-4zM32 32h4v4h-4zM36 32h4v4h-4zM40 32h4v4h-4zM48 32h4v4h-4z"/><path fill="#789" d="M51 32h4v4h-4zM55 32h4v4h-4zM59 32h4v4h-4zM63 32h4v4h-4zM67 32h4v4h-4zM75 32h4v4h-4zM83 32h4v4h-4zM91 32h4v4h-4zM4 36h4v4H4zM8 36h4v4H8zM12 36h4v4h-4zM16 36h4v4h-4zM28 36h4v4h-4zM36 36h4v4h-4zM51 36h4v4h-4zM63 36h4v4h-4zM75 36h4v4h-4zM91 36h4v4h-4zM4 40h4v4H4zM8 40h4v4H8zM16 40h4v4h-4zM24 40h4v4h-4zM28 40h4v4h-4zM32 40h4v4h-4zM36 40h4v4h-4zM44 40h4v4h-4zM48 40h4v4h-4z"/><path fill="#789" d="M51 40h4v4h-4zM59 40h4v4h-4zM67 40h4v4h-4zM71 40h4v4h-4zM79 40h4v4h-4zM83 40h4v4h-4zM91 40h4v4h-4zM95 40h4v4h-4zM8 44h4v4H8zM12 44h4v4h-4zM20 44h4v4h-4zM28 44h4v4h-4zM36 44h4v4h-4zM40 44h4v4h-4zM44 44h4v4h-4zM63 44h4v4h-4zM67 44h4v4h-4zM71 44h4v4h-4zM75 44h4v4h-4zM79 44h4v4h-4zM95 44h4v4h-4zM0 48h4v4H0zM4 48h4v4H4zM8 48h4v4H8zM16 48h4v4h-4zM24 48h4v4h-4zM36 48h4v4h-4zM44 48h4v4h-4zM51 48h4v4h-4zM55 48h4v4h-4zM67 48h4v4h-4zM71 48h4v4h-4zM79 48h4v4h-4zM87 48h4v4h-4zM91 48h4v4h-4zM95 48h4v4h-4z"/><path fill="#789" d="M0 51h4v4H0zM4 51h4v4H4zM8 51h4v4H8zM16 51h4v4h-4zM20 51h4v4h-4zM40 51h4v4h-4zM48 51h4v4h-4zM55 51h4v4h-4zM75 51h4v4h-4zM83 51h4v4h-4zM91 51h4v4h-4zM0 55h4v4H0zM12 55h4v4h-4zM16 55h4v4h-4zM24 55h4v4h-4zM28 55h4v4h-4zM32 55h4v4h-4zM59 55h4v4h-4zM63 55h4v4h-4zM67 55h4v4h-4zM75 55h4v4h-4zM79 55h4v4h-4zM83 55h4v4h-4zM91 55h4v4h-4zM95 55h4v4h-4zM0 59h4v4H0zM8 59h4v4H8zM16 59h4v4h-4zM20 59h4v4h-4zM28 59h4v4h-4zM32 59h4v4h-4zM48 59h4v4h-4zM55 59h4v4h-4zM71 59h4v4h-4zM75 59h4v4h-4zM79 59h4v4h-4zM83 59h4v4h-4zM95 59h4v4h-4zM0 63h4v4H0zM8 63h4v4H8zM16 63h4v4h-4zM24 63h4v4h-4zM32 63h4v4h-4zM36 63h4v4h-4zM40 63h4v4h-4zM48 63h4v4h-4z"/><path fill="#789" d="M51 63h4v4h-4zM55 63h4v4h-4zM63 63h4v4h-4zM67 63h4v4h-4zM71 63h4v4h-4zM75 63h4v4h-4zM79 63h4v4h-4zM87 63h4v4h-4zM32 67h4v4h-4zM40 67h4v4h-4zM55 67h4v4h-4zM59 67h4v4h-4zM63 67h4v4h-4zM79 67h4v4h-4zM83 67h4v4h-4zM87 67h4v4h-4zM0 71h4v4H0zM4 71h4v4H4zM8 71h4v4H8zM12 71h4v4h-4zM16 71h4v4h-4zM20 71h4v4h-4zM24 71h4v4h-4zM32 71h4v4h-4zM36 71h4v4h-4zM40 71h4v4h-4zM44 71h4v4h-4zM48 71h4v4h-4zM55 71h4v4h-4zM63 71h4v4h-4zM71 71h4v4h-4zM79 71h4v4h-4zM83 71h4v4h-4zM87 71h4v4h-4zM91 71h4v4h-4zM95 71h4v4h-4zM0 75h4v4H0zM24 75h4v4h-4zM36 75h4v4h-4zM40 75h4v4h-4zM44 75h4v4h-4zM63 75h4v4h-4zM79 75h4v4h-4zM83 75h4v4h-4zM95 75h4v4h-4zM0 79h4v4H0zM8 79h4v4H8zM12 79h4v4h-4zM16 79h4v4h-4zM24 79h4v4h-4zM32 79h4v4h-4zM36 79h4v4h-4zM44 79h4v4h-4zM48 79h4v4h-4z"/><path fill="#789" d="M51 79h4v4h-4zM55 79h4v4h-4zM59 79h4v4h-4zM63 79h4v4h-4zM67 79h4v4h-4zM71 79h4v4h-4zM75 79h4v4h-4zM79 79h4v4h-4zM83 79h4v4h-4zM87 79h4v4h-4zM0 83h4v4H0zM8 83h4v4H8zM12 83h4v4h-4zM16 83h4v4h-4zM24 83h4v4h-4zM32 83h4v4h-4zM36 83h4v4h-4zM48 83h4v4h-4zM59 83h4v4h-4zM63 83h4v4h-4zM67 83h4v4h-4zM71 83h4v4h-4zM79 83h4v4h-4zM87 83h4v4h-4zM91 83h4v4h-4zM95 83h4v4h-4zM0 87h4v4H0zM8 87h4v4H8zM12 87h4v4h-4zM16 87h4v4h-4zM24 87h4v4h-4zM32 87h4v4h-4zM40 87h4v4h-4zM55 87h4v4h-4zM63 87h4v4h-4zM75 87h4v4h-4zM87 87h4v4h-4zM95 87h4v4h-4zM0 91h4v4H0zM24 91h4v4h-4zM32 91h4v4h-4zM36 91h4v4h-4zM40 91h4v4h-4zM44 91h4v4h-4zM59 91h4v4h-4zM63 91h4v4h-4zM75 91h4v4h-4zM79 91h4v4h-4zM83 91h4v4h-4zM95 91h4v4h-4zM0 95h4v4H0zM4 95h4v4H4zM8 95h4v4H8zM12 95h4v4h-4zM16 95h4v4h-4zM20 95h4v4h-4zM24 95h4v4h-4zM32 95h4v4h-4zM40 95h4v4h-4zM48 95h4v4h-4z"/><path fill="#789" d="M51 95h4v4h-4zM55 95h4v4h-4zM67 95h4v4h-4zM71 95h4v4h-4zM75 95h4v4h-4zM79 95h4v4h-4zM83 95h4v4h-4zM87 95h4v4h-4zM91 95h4v4h-4zM95 95h4v4h-4z"/></svg>