<svg version="1.2" xmlns="http://www.w3.org/2000/svg" viewBox="0 0 1248 1248" width="100" height="100">
	<title>male-ai</title>
	<style>
		.s0 { fill: #009fda } 
		.s1 { fill: #ffffff } 
	</style>
	<g id="_Artboards_">
	</g>
	<g id="Master Layer 4">
		<path id="&lt;Path&gt;" class="s0" d="m624 0c343.2 0 624 280.8 624 624 0 343.2-280.8 624-624 624-343.2 0-624-280.8-624-624 0-343.2 280.8-624 624-624z"/>
	</g>
	<g id="Layer 1">
		<g id="&lt;Group&gt;">
			<path id="&lt;Compound Path&gt;" fill-rule="evenodd" class="s1" d="m828.3 706.1c0 79.2-32 150.8-83.9 202.6-51.8 51.9-123.4 83.9-202.5 83.9-79.2 0-150.8-32-202.6-83.9-51.9-51.8-83.9-123.4-83.9-202.6 0-79.1 32-150.7 83.9-202.5 51.8-51.9 123.4-84 202.6-84 79.1 0 150.7 32.1 202.5 84 51.9 51.8 83.9 123.4 83.9 202.5zm-127.3 159.2c40.7-40.7 65.9-97 65.9-159.2 0-62.1-25.2-118.4-65.9-159.1-40.7-40.7-97-65.9-159.1-65.9-62.2 0-118.5 25.2-159.2 65.9-40.7 40.7-65.9 97-65.9 159.1 0 62.2 25.2 118.5 65.9 159.2 40.7 40.7 97 65.9 159.2 65.9 62.1 0 118.4-25.2 159.1-65.9z"/>
			<path id="&lt;Path&gt;" class="s1" d="m931.2 458.6c0 16.9 13.8 30.7 30.7 30.7 17 0 30.7-13.8 30.7-30.7v-172.5h-30.7l21.7 21.7-0.1 0.2c5.6-5.6 9.1-13.3 9.1-21.9 0-17-13.7-30.7-30.7-30.7v30.7-30.7h-172.5c-16.9 0-30.7 13.7-30.7 30.7 0 16.9 13.8 30.7 30.7 30.7h98.4l-186.8 186.8c-12 12-12 31.4 0 43.4 12 12 31.4 12 43.4 0l186.8-186.8v98.4z"/>
		</g>
	</g>
</svg>